<?xml version="1.0" standalone="no"?>
<!DOCTYPE svg PUBLIC "-//W3C//DTD SVG 20010904//EN"
 "http://www.w3.org/TR/2001/REC-SVG-20010904/DTD/svg10.dtd">
<svg version="1.0" xmlns="http://www.w3.org/2000/svg"
 width="2284.000000pt" height="812.000000pt" viewBox="0 0 2284.000000 812.000000"
 preserveAspectRatio="xMidYMid meet">

<g transform="translate(0.000000,812.000000) scale(0.100000,-0.100000)"
fill="#000000" stroke="none">
<path d="M1240 4800 c0 -1105 2 -2010 4 -2010 2 0 127 -9 278 -20 282 -20 689
-45 908 -55 69 -3 153 -8 187 -11 l63 -6 2 399 3 398 873 3 872 2 0 605 0 605
-872 2 -873 3 -3 448 -2 447 990 0 990 0 0 600 0 600 -1710 0 -1710 0 0 -2010z"/>
<path d="M5379 5873 c241 -516 671 -1439 956 -2052 l519 -1113 121 6 c640 36
1483 100 1866 142 l57 6 913 1966 c503 1080 916 1969 917 1973 2 5 -319 9
-716 9 l-719 0 -723 -1560 c-398 -858 -726 -1560 -729 -1560 -3 0 -330 702
-725 1560 l-720 1560 -727 0 -727 0 437 -937z"/>
<path d="M12761 6800 c-525 -44 -1016 -231 -1440 -547 -153 -114 -420 -382
-534 -535 -211 -283 -364 -589 -456 -915 -156 -552 -137 -1079 59 -1678 50
-151 52 -155 79 -155 32 0 434 65 681 111 238 44 783 149 786 152 1 1 -22 43
-52 92 -92 154 -172 365 -205 545 -17 94 -15 308 5 414 53 276 173 505 370
701 148 148 315 252 504 315 681 226 1411 -133 1651 -813 91 -259 99 -538 21
-715 -11 -25 -19 -46 -18 -48 7 -6 1179 325 1433 405 l60 19 3 101 c5 171 -47
440 -135 694 -168 493 -479 935 -886 1261 -388 310 -871 515 -1373 581 -147
19 -415 26 -553 15z"/>
<path d="M16060 5515 c0 -712 2 -1295 5 -1295 9 0 492 189 660 258 203 83 418
176 624 268 l151 67 0 399 0 398 990 0 990 0 0 600 0 600 -1710 0 -1710 0 0
-1295z"/>
<path d="M20052 6287 c-127 -127 -232 -239 -232 -247 0 -20 451 -470 470 -470
8 0 120 105 249 234 202 203 232 236 223 252 -14 26 -456 464 -468 464 -5 0
-114 -105 -242 -233z"/>
<path d="M21022 6287 c-127 -127 -232 -239 -232 -247 0 -23 451 -470 475 -470
28 0 475 448 475 475 0 24 -447 475 -471 475 -8 0 -119 -105 -247 -233z"/>
<path d="M20047 5312 c-146 -146 -227 -234 -227 -247 0 -24 447 -475 471 -475
16 0 479 459 479 475 0 16 -464 475 -480 475 -8 0 -118 -102 -243 -228z"/>
<path d="M21022 5307 c-127 -127 -232 -236 -232 -242 0 -13 462 -475 475 -475
16 0 475 464 475 480 0 20 -451 470 -470 470 -8 0 -120 -105 -248 -233z"/>
<path d="M19016 4605 c-770 -383 -1753 -786 -2653 -1088 l-303 -102 0 -1057 0
-1058 1710 0 1710 0 0 590 0 590 -990 0 -990 0 2 508 3 507 873 3 872 2 0 605
c0 478 -3 605 -12 604 -7 0 -107 -47 -222 -104z"/>
<path d="M15455 3229 c-413 -125 -1140 -312 -1660 -428 -855 -190 -1816 -353
-2655 -451 -151 -18 -281 -34 -288 -36 -30 -9 219 -267 390 -405 389 -313 845
-510 1353 -586 183 -27 591 -24 780 5 621 97 1152 371 1583 816 257 267 461
589 592 936 57 150 67 190 48 189 -7 0 -71 -18 -143 -40z"/>
<path d="M1240 1976 l0 -676 1710 0 1710 0 0 468 0 468 -217 17 c-658 53
-1445 141 -2183 243 -318 44 -953 140 -997 151 l-23 5 0 -676z"/>
<path d="M8433 2144 c-6 -3 -303 -8 -660 -12 l-649 -7 191 -410 192 -410 334
-2 334 -3 75 163 c40 89 129 280 196 425 l123 262 -62 -1 c-34 0 -67 -3 -74
-5z"/>
</g>
</svg>
